<?xml version="1.0" encoding="UTF-8"?><svg id="Layer_2" xmlns="http://www.w3.org/2000/svg" viewBox="0 0 40.3 32.72"><g id="Camada_1"><path d="M40.16,22.38c.42-4.83-.22-5.26-.56-5.49-.12-.08-.44-.32-.86-.63V5.86c0-3.23-3.2-5.86-7.13-5.86H9.83C5.9,0,2.7,2.63,2.7,5.86v9.6l-2.43,1.68-.02.43s-.09,2.73-.19,5.08c-.14,3.59,0,5.48,0,5.56l.06.79h1.44v1.25c0,1.36,1.11,2.47,2.47,2.47h1.19c1.36,0,2.47-1.11,2.47-2.47v-1.25h24.75v1.25c0,1.36,1.11,2.47,2.47,2.47h1.19c1.36,0,2.47-1.11,2.47-2.47v-1.25h1.6v-6.61ZM4.4,5.86c0-2.3,2.44-4.16,5.43-4.16h21.77c3,0,5.43,1.87,5.43,4.16v9.13c-.51-.38-1.01-.76-1.41-1.07v-2.98c0-1.77-1.44-3.21-3.2-3.21h-9.19c-.94,0-1.78.42-2.37,1.07-.59-.65-1.43-1.07-2.37-1.07h-9.19c-1.77,0-3.21,1.44-3.21,3.21v2.43h-.37l-1.33.92V5.86ZM19.99,13.36H7.8v-2.43c0-.83.67-1.5,1.5-1.5h9.19c.83,0,1.5.67,1.5,1.5v2.43ZM33.92,13.36h-12.19v-2.43c0-.83.67-1.5,1.5-1.5h9.19c.83,0,1.5.67,1.5,1.5v2.43ZM6.26,15.07h28.06c.83.63,3.38,2.57,4.17,3.13.14.57.11,2.49-.03,4.11v.28H1.77c.07-1.76.14-3.69.17-4.53l4.32-2.99ZM1.73,27.29c-.02-.63-.04-1.64,0-3h36.75v3H1.73ZM5.99,30.25c0,.42-.34.77-.77.77h-1.19c-.42,0-.77-.34-.77-.77v-1.25h2.72v1.25ZM36.86,30.25c0,.42-.34.77-.77.77h-1.19c-.42,0-.77-.34-.77-.77v-1.25h2.72v1.25Z"/></g></svg>