<?xml version="1.0" encoding="UTF-8"?><svg id="Layer_2" xmlns="http://www.w3.org/2000/svg" viewBox="0 0 35.3 40.48"><g id="Camada_1"><path d="M33.58,40.48H1.73c-.95,0-1.73-.77-1.73-1.73v-2.52c0-.95.77-1.73,1.73-1.73h31.85c.95,0,1.73.77,1.73,1.73v2.52c0,.95-.77,1.73-1.73,1.73ZM1.73,36.21l-.02,2.55,31.87.02s.02-.01.02-.02v-2.52l-31.88-.02Z"/><path d="M31.7,35.16h-1.7V2.81c0-.61-.45-1.11-1.01-1.11H6.31c-.55,0-1.01.5-1.01,1.11v32.34h-1.7V2.81c0-1.55,1.21-2.81,2.71-2.81h22.69c1.49,0,2.71,1.26,2.71,2.81v32.34Z"/><path d="M22.38,35.16h-1.7v-8.47h-6.06v8.47h-1.7v-8.78c0-.76.63-1.38,1.4-1.38h6.67c.77,0,1.4.62,1.4,1.38v8.78Z"/><path d="M12.38,10.02h-3.42c-.69,0-1.25-.56-1.25-1.25v-3.55c0-.69.56-1.25,1.25-1.25h3.42c.69,0,1.25.56,1.25,1.25v3.55c0,.69-.56,1.25-1.25,1.25ZM9.41,8.32h2.51v-2.64h-2.51v2.64Z"/><path d="M19.37,10.02h-3.42c-.69,0-1.25-.56-1.25-1.25v-3.55c0-.69.56-1.25,1.25-1.25h3.42c.69,0,1.25.56,1.25,1.25v3.55c0,.69-.56,1.25-1.25,1.25ZM16.4,8.32h2.51v-2.64h-2.51v2.64Z"/><path d="M26.36,10.02h-3.42c-.69,0-1.25-.56-1.25-1.25v-3.55c0-.69.56-1.25,1.25-1.25h3.42c.69,0,1.25.56,1.25,1.25v3.55c0,.69-.56,1.25-1.25,1.25ZM23.39,8.32h2.51v-2.64h-2.51v2.64Z"/><path d="M12.38,17.01h-3.42c-.69,0-1.25-.56-1.25-1.25v-3.55c0-.69.56-1.25,1.25-1.25h3.42c.69,0,1.25.56,1.25,1.25v3.55c0,.69-.56,1.25-1.25,1.25ZM9.41,15.31h2.51v-2.64h-2.51v2.64Z"/><path d="M19.37,17.01h-3.42c-.69,0-1.25-.56-1.25-1.25v-3.55c0-.69.56-1.25,1.25-1.25h3.42c.69,0,1.25.56,1.25,1.25v3.55c0,.69-.56,1.25-1.25,1.25ZM16.4,15.31h2.51v-2.64h-2.51v2.64Z"/><path d="M26.36,17.01h-3.42c-.69,0-1.25-.56-1.25-1.25v-3.55c0-.69.56-1.25,1.25-1.25h3.42c.69,0,1.25.56,1.25,1.25v3.55c0,.69-.56,1.25-1.25,1.25ZM23.39,15.31h2.51v-2.64h-2.51v2.64Z"/><path d="M12.38,23.99h-3.42c-.69,0-1.25-.56-1.25-1.25v-3.55c0-.69.56-1.25,1.25-1.25h3.42c.69,0,1.25.56,1.25,1.25v3.55c0,.69-.56,1.25-1.25,1.25ZM9.41,22.29h2.51v-2.64h-2.51v2.64Z"/><path d="M19.37,23.99h-3.42c-.69,0-1.25-.56-1.25-1.25v-3.55c0-.69.56-1.25,1.25-1.25h3.42c.69,0,1.25.56,1.25,1.25v3.55c0,.69-.56,1.25-1.25,1.25ZM16.4,22.29h2.51v-2.64h-2.51v2.64Z"/><path d="M26.36,23.99h-3.42c-.69,0-1.25-.56-1.25-1.25v-3.55c0-.69.56-1.25,1.25-1.25h3.42c.69,0,1.25.56,1.25,1.25v3.55c0,.69-.56,1.25-1.25,1.25ZM23.39,22.29h2.51v-2.64h-2.51v2.64Z"/></g></svg>