<?xml version="1.0" encoding="UTF-8"?><svg id="Layer_2" xmlns="http://www.w3.org/2000/svg" viewBox="0 0 40.24 40.81"><g id="Camada_1"><polygon points="21.89 30.93 21.89 22.87 19.76 22.87 19.76 26.54 13.84 26.54 13.84 28.67 19.76 28.67 19.76 30.93 21.89 30.93"/><path d="M40.24,9.32h-.28V1.06c0-.59-.48-1.06-1.06-1.06H15.75c-.59,0-1.06.48-1.06,1.06v8.54H1.06c-.59,0-1.06.48-1.06,1.06v29.08c0,.59.48,1.06,1.06,1.06h7.56v-2.13H2.13v-9.73h7.06v-2.13H2.13v-15.1h17.36v8.19h2.13v-8.19h3.95v-2.13h-8.75V2.13h21.03v7.19h-7.91v2.13h7.91v27.24h-15.94v-4.95h-2.13v4.95h-6.21v2.13h25.35c.59,0,1.06-.48,1.06-1.06V11.44h.28v-2.13Z"/></g></svg>